<?xml version="1.0" encoding="utf-8"?>
<!-- Generator: Adobe Illustrator 17.0.0, SVG Export Plug-In . SVG Version: 6.00 Build 0)  -->
<!DOCTYPE svg PUBLIC "-//W3C//DTD SVG 1.1//EN" "http://www.w3.org/Graphics/SVG/1.1/DTD/svg11.dtd">
<svg version="1.1" id="Layer_1" xmlns="http://www.w3.org/2000/svg" xmlns:xlink="http://www.w3.org/1999/xlink" x="0px" y="0px"
	 width="612px" height="144px" viewBox="0 0 612 144" enable-background="new 0 0 612 144" xml:space="preserve">
<g>
	<path fill="#FFFFFF" d="M563.581,73.257c-0.764-0.278-1.664-0.274-2.663,0.018c-0.941,0.271-1.827,0.832-2.601,1.628
		c-0.721,0.69-1.839,1.568-3.323,2.607c-1.512,1.06-3.259,2.184-5.191,3.344c-1.942,1.165-3.986,2.291-6.075,3.349
		c-0.924,0.468-1.835,0.899-2.727,1.293c0.533-1.285,1.073-2.588,1.622-3.907c1.013-2.442,1.963-4.678,2.846-6.709
		c0.872-2.007,1.629-3.8,2.248-5.333c0.722-1.797,1.024-2.483,1.167-2.776c0.496-1.081,0.888-1.902,1.171-2.468
		c0.253-0.503,0.491-0.915,0.704-1.221c0.246-0.35,0.489-0.685,0.734-1.01c0.257-0.343,0.604-0.831,1.047-1.465l0.196-0.281
		l0.054-0.338c0.206-1.278-0.951-2.11-1.392-2.428c-0.753-0.536-1.702-0.899-2.82-1.077c-1.992-0.317-3.628-0.049-4.872,0.801
		c-0.723,0.492-1.424,1.253-2.119,2.303c-0.235-0.842-0.551-1.669-0.942-2.472c-0.624-1.277-1.477-2.412-2.536-3.376
		c-1.134-1.026-2.567-1.685-4.26-1.956c-3.312-0.529-6.525-0.035-9.514,1.47c-2.875,1.449-5.441,3.402-7.627,5.807
		c-2.16,2.374-3.977,5.04-5.398,7.924c-1.425,2.89-2.341,5.564-2.726,7.95c-0.778,4.852-0.431,8.775,1.034,11.659
		c1.545,3.05,3.974,4.859,7.219,5.381c3.276,0.523,6.377,0.191,9.201-0.994c0.931-0.391,1.831-0.833,2.697-1.323
		c-0.069,0.155-0.139,0.312-0.209,0.469c-1.229,0.651-2.515,1.365-3.917,2.173c-1.525,0.878-3.127,1.806-4.781,2.777
		c-3.367,1.922-6.2,3.582-8.422,4.934c-2.263,1.376-4.134,2.755-5.562,4.101c-1.485,1.398-2.639,2.975-3.43,4.687
		c-0.76,1.653-1.353,3.785-1.763,6.336c-0.298,1.866-0.37,3.95-0.215,6.193c0.16,2.28,0.64,4.491,1.426,6.57
		c0.805,2.13,1.943,4.001,3.383,5.561c1.546,1.671,3.568,2.718,6.011,3.109c0.332,0.054,0.669,0.081,1,0.081
		c1.476,0,2.919-0.529,4.287-1.573c1.462-1.114,2.886-2.625,4.235-4.493c1.304-1.809,2.58-3.902,3.793-6.225
		c1.193-2.282,2.312-4.638,3.329-7.003c0.991-2.315,1.92-4.568,2.763-6.699l2.073-5.258c0.532-1.314,1.165-2.8,1.881-4.413
		c0.649-1.464,1.46-3.374,2.472-5.825c1.531-0.6,3.325-1.36,5.342-2.266c2.351-1.054,4.819-2.321,7.339-3.769
		c2.529-1.452,5.071-3.089,7.553-4.866c2.526-1.808,4.768-3.777,6.67-5.859c0.924-1.023,1.353-1.953,1.31-2.847
		C565.247,74.465,564.617,73.628,563.581,73.257z M523.104,102.528c-0.192,0.441-0.383,0.879-0.569,1.312
		c-0.835,1.94-1.631,3.748-2.394,5.427c-0.765,1.688-1.435,3.191-2.011,4.508c-0.57,1.304-1.01,2.305-1.304,2.969
		c-1.36,2.879-2.58,5.147-3.623,6.737c-0.501,0.764-1.272,1.666-2.064,1.527c-0.224-0.035-0.399-0.118-0.555-0.26
		c-0.035-0.032-0.216-0.225-0.363-0.888c-0.144-0.651-0.196-1.573-0.156-2.738c0.042-1.229,0.221-2.834,0.532-4.771
		c0.289-1.808,0.815-3.353,1.564-4.599c0.775-1.293,1.739-2.474,2.863-3.512c1.159-1.069,2.474-2.084,3.905-3.013L523.104,102.528z
		 M532.389,59.631c0.179,0.028,0.725,0.116,1.288,1.124c0.331,0.592,0.722,1.794,0.701,4.152c-0.006,0.396-0.033,0.849-0.084,1.354
		c-0.063,0.645-0.071,1.296-0.024,1.929c0.048,0.696,0.173,1.344,0.369,1.918c0.238,0.707,0.67,1.257,1.252,1.595
		c-0.074,0.505-0.237,1.071-0.484,1.688c-0.299,0.742-0.685,1.52-1.15,2.314c-0.443,0.762-0.836,1.397-1.167,1.892
		c-0.387,0.462-0.947,1.07-1.666,1.809c-0.707,0.726-1.578,1.431-2.585,2.095c-1.009,0.662-2.115,1.217-3.292,1.649
		c-1.044,0.386-2.114,0.493-3.202,0.318c-2.734-0.438-3.115-1.659-3.24-2.06c-0.449-1.438-0.489-3.338-0.117-5.648
		c0.306-1.914,0.94-3.921,1.885-5.963c0.951-2.049,2.111-3.911,3.451-5.534c1.312-1.591,2.731-2.849,4.216-3.739
		c1.054-0.634,2.092-0.954,3.086-0.954C531.878,59.569,532.135,59.59,532.389,59.631z"/>
	<g>
		<path fill="#FFFFFF" d="M80.806,21.655c0,1.001-0.158,2.205-0.472,3.613c-0.315,1.408-0.77,2.871-1.361,4.391
			c-0.593,1.52-1.306,3.028-2.14,4.529c-0.834,1.5-1.788,2.853-2.862,4.057c-1.075,1.204-2.242,2.177-3.501,2.918
			c-1.26,0.741-2.612,1.111-4.057,1.111c-0.334,0-0.77-0.028-1.306-0.084c-0.538-0.055-1.075-0.185-1.612-0.389
			c-0.537-0.203-1-0.509-1.389-0.917c-0.389-0.407-0.583-0.944-0.583-1.612c0-0.443,0.12-0.963,0.361-1.556
			c0.24-0.593,0.675-1.278,1.306-2.056c0.667-0.741,1.39-1.621,2.167-2.641c0.778-1.018,1.481-2.084,2.112-3.195
			c0.63-1.111,1.158-2.203,1.584-3.279c0.426-1.074,0.639-2.037,0.639-2.89c0-1.073-0.25-1.936-0.75-2.584
			c-0.501-0.647-1.362-0.973-2.585-0.973c-1.593,0-3.39,0.52-5.391,1.556c-2.001,1.038-4.094,2.465-6.28,4.279
			c-2.187,1.816-4.409,3.938-6.669,6.363c-2.26,2.428-4.446,5.021-6.558,7.781s-4.104,5.632-5.974,8.613
			c-1.872,2.983-3.502,5.929-4.891,8.837c-1.39,2.909-2.483,5.706-3.279,8.392c-0.797,2.687-1.195,5.123-1.195,7.309
			c0,2.704,0.723,4.872,2.167,6.502c1.445,1.631,3.835,2.445,7.169,2.445c1.556,0,3.871-0.602,6.947-1.807
			c3.075-1.203,5.641-2.407,7.697-3.612c2.056-1.203,4.13-2.537,6.224-4.001c2.093-1.463,4.085-2.871,5.974-4.224
			c1.89-1.353,3.613-2.575,5.169-3.668s2.834-1.862,3.835-2.307c0.185-0.148,0.407-0.222,0.667-0.222
			c0.556,0,0.935,0.454,1.139,1.361c0.203,0.908,0.306,1.936,0.306,3.084c0,0.631-0.084,1.399-0.25,2.307
			c-0.167,0.908-0.695,1.955-1.584,3.14c-0.408,0.482-1.167,1.298-2.279,2.445c-1.111,1.149-2.5,2.445-4.168,3.891
			c-1.667,1.444-3.576,2.945-5.724,4.501c-2.15,1.557-4.474,2.983-6.975,4.279c-2.501,1.298-5.724,2.576-9.67,3.835
			s-7.383,1.89-10.309,1.89c-3.446,0-6.391-0.417-8.836-1.25c-2.445-0.834-4.446-1.991-6.002-3.474
			c-1.556-1.481-2.695-3.251-3.418-5.308c-0.723-2.057-1.084-4.307-1.084-6.752c0-3.038,0.463-6.299,1.39-9.781
			c0.925-3.482,2.213-7.021,3.862-10.615c1.648-3.594,3.612-7.188,5.891-10.781c2.278-3.594,4.779-7.03,7.502-10.309
			s5.622-6.326,8.697-9.143c3.075-2.815,6.225-5.261,9.448-7.336c3.224-2.074,6.465-3.705,9.726-4.891
			c3.26-1.185,6.465-1.778,9.615-1.778c1.556,0,3.037,0.177,4.446,0.528c1.408,0.352,2.64,0.916,3.696,1.695
			c1.056,0.777,1.89,1.806,2.501,3.084C80.5,18.237,80.806,19.804,80.806,21.655z"/>
		<path fill="#FFFFFF" d="M127.767,78.565c-1.631,1.852-3.529,3.659-5.696,5.418c-2.167,1.761-4.4,3.326-6.697,4.696
			c-2.298,1.371-4.557,2.474-6.78,3.307c-2.223,0.834-4.224,1.251-6.002,1.251s-3.224-0.5-4.335-1.501
			c-1.111-1-1.667-2.704-1.667-5.112c0-1.704,0.296-3.686,0.889-5.947c-0.964,1.445-2.168,2.909-3.612,4.391
			c-1.445,1.482-3.094,2.834-4.946,4.057c-1.853,1.223-3.928,2.215-6.225,2.974s-4.798,1.14-7.502,1.14
			c-1.223,0-2.399-0.131-3.529-0.39c-1.131-0.26-2.122-0.704-2.974-1.333c-0.853-0.63-1.538-1.474-2.056-2.529
			c-0.519-1.056-0.778-2.38-0.778-3.974c0-0.036,0.074-0.602,0.222-1.694c0.148-1.093,0.62-2.815,1.417-5.169
			c0.796-2.352,2.029-5.399,3.696-9.142c1.668-3.742,4.02-8.281,7.058-13.616c0.778-1.408,1.676-2.418,2.695-3.029
			s2.121-0.916,3.307-0.916c0.519,0,1.056,0.064,1.612,0.193c0.556,0.131,1.074,0.334,1.556,0.611
			c0.481,0.278,0.87,0.631,1.167,1.057c0.296,0.426,0.444,0.917,0.444,1.473c0,0.371-0.055,0.723-0.167,1.057
			c-0.186,0.63-0.583,1.453-1.195,2.473c-0.611,1.02-1.325,2.186-2.14,3.501s-1.677,2.732-2.584,4.251
			c-0.909,1.521-1.751,3.095-2.529,4.725c-0.778,1.631-1.445,3.288-2.001,4.974s-0.871,3.326-0.944,4.918
			c0,0.667,0.185,1.278,0.556,1.834c0.37,0.556,0.981,0.834,1.834,0.834c2.408,0,4.705-0.667,6.891-2.001s4.205-2.991,6.058-4.974
			c1.852-1.981,3.529-4.112,5.029-6.392c1.501-2.278,2.751-4.362,3.751-6.252c0.704-1.259,1.324-2.611,1.862-4.057
			c0.537-1.445,1.12-2.779,1.751-4.002c0.63-1.223,1.352-2.24,2.167-3.057c0.814-0.814,1.834-1.223,3.057-1.223
			c1.334,0,2.39,0.427,3.168,1.279s1.167,1.871,1.167,3.057c0,0.666-0.25,1.584-0.75,2.751s-1.13,2.5-1.89,4.001
			c-0.76,1.5-1.584,3.104-2.473,4.807c-0.889,1.705-1.714,3.438-2.473,5.196c-0.76,1.761-1.39,3.483-1.89,5.169
			c-0.5,1.687-0.75,3.251-0.75,4.696c0,1.333,0.815,2,2.445,2c1.148,0,2.575-0.333,4.279-1s3.492-1.603,5.363-2.807
			c1.87-1.203,3.742-2.62,5.613-4.251c1.871-1.63,3.529-3.391,4.974-5.28L127.767,78.565z"/>
		<path fill="#FFFFFF" d="M136.714,60.947c-1.371,2.667-2.668,5.271-3.89,7.809c-1.223,2.538-2.372,4.882-3.446,7.029
			c-0.444,0.89-0.88,1.918-1.306,3.085c-0.426,1.167-0.639,2.195-0.639,3.084c0,0.52,0.12,0.927,0.361,1.223
			c0.24,0.297,0.639,0.445,1.195,0.445c0.778,0,1.759-0.231,2.945-0.695c1.186-0.463,2.463-1.074,3.834-1.834
			c1.371-0.759,2.816-1.63,4.335-2.612c1.519-0.98,3.01-2,4.474-3.056c1.463-1.057,2.862-2.112,4.196-3.168
			c1.333-1.057,2.519-2.028,3.557-2.918c0.592-0.407,1.148-0.611,1.667-0.611c0.63,0,1.148,0.278,1.556,0.834
			c0.407,0.556,0.611,1.26,0.611,2.111c0,0.852-0.204,1.723-0.611,2.612c-0.408,0.889-1.149,1.76-2.223,2.612
			c-2.409,2.187-4.845,4.261-7.308,6.224c-2.464,1.965-4.91,3.696-7.336,5.196c-2.427,1.501-4.827,2.695-7.197,3.585
			c-2.371,0.889-4.668,1.334-6.891,1.334c-1.482,0-2.723-0.194-3.724-0.584c-1-0.389-1.806-0.926-2.417-1.611
			c-0.611-0.686-1.047-1.482-1.306-2.39c-0.26-0.907-0.389-1.88-0.389-2.918c0-1.853,0.314-3.779,0.945-5.779
			c0.629-2.001,1.333-3.798,2.112-5.392c1.111-2.296,2.213-4.575,3.307-6.835c1.092-2.26,2.158-4.427,3.195-6.503h-2.39
			c-2.075,0-3.501-0.333-4.279-1s-1.167-1.426-1.167-2.278c0-0.37,0.12-0.824,0.361-1.361s0.592-1.037,1.056-1.501
			c0.462-0.463,1.028-0.861,1.695-1.194c0.667-0.334,1.426-0.5,2.279-0.5h6.002l11.726-23.287c0.741-1.407,1.658-2.417,2.751-3.028
			c1.092-0.611,2.232-0.917,3.418-0.917c1.111,0,2.13,0.297,3.057,0.889c0.926,0.594,1.389,1.576,1.389,2.946
			c0,0.704-0.158,1.417-0.472,2.14c-0.315,0.723-0.732,1.565-1.25,2.528c-0.334,0.63-0.742,1.381-1.223,2.251
			c-0.482,0.871-0.992,1.797-1.528,2.779c-0.538,0.981-1.093,2.01-1.667,3.084c-0.575,1.074-1.139,2.111-1.695,3.111
			c-1.26,2.372-2.594,4.873-4.001,7.504H158.5c0.889,0,1.704,0.047,2.445,0.139c0.74,0.092,1.379,0.277,1.917,0.555
			c0.537,0.278,0.954,0.658,1.251,1.141c0.296,0.481,0.445,1.13,0.445,1.944c0,0.408-0.065,0.815-0.195,1.223
			s-0.371,0.778-0.722,1.111c-0.352,0.334-0.834,0.611-1.445,0.834c-0.611,0.222-1.399,0.371-2.362,0.444L136.714,60.947z"/>
		<path fill="#FFFFFF" d="M166.058,60.947c-1.371,2.667-2.668,5.271-3.89,7.809c-1.223,2.538-2.372,4.882-3.446,7.029
			c-0.444,0.89-0.88,1.918-1.306,3.085s-0.639,2.195-0.639,3.084c0,0.52,0.12,0.927,0.361,1.223c0.24,0.297,0.639,0.445,1.195,0.445
			c0.778,0,1.759-0.231,2.945-0.695c1.186-0.463,2.463-1.074,3.835-1.834c1.371-0.759,2.815-1.63,4.335-2.612
			c1.519-0.98,3.01-2,4.474-3.056c1.463-1.057,2.862-2.112,4.196-3.168c1.333-1.057,2.519-2.028,3.557-2.918
			c0.592-0.407,1.148-0.611,1.667-0.611c0.63,0,1.148,0.278,1.556,0.834c0.407,0.556,0.611,1.26,0.611,2.111
			c0,0.852-0.204,1.723-0.611,2.612c-0.408,0.889-1.149,1.76-2.223,2.612c-2.409,2.187-4.845,4.261-7.308,6.224
			c-2.464,1.965-4.91,3.696-7.336,5.196c-2.427,1.501-4.827,2.695-7.197,3.585c-2.371,0.889-4.668,1.334-6.891,1.334
			c-1.482,0-2.723-0.194-3.724-0.584c-1-0.389-1.806-0.926-2.417-1.611c-0.611-0.686-1.047-1.482-1.306-2.39
			c-0.26-0.907-0.389-1.88-0.389-2.918c0-1.853,0.314-3.779,0.945-5.779c0.629-2.001,1.333-3.798,2.112-5.392
			c1.111-2.296,2.213-4.575,3.307-6.835c1.092-2.26,2.158-4.427,3.195-6.503h-2.39c-2.075,0-3.501-0.333-4.279-1
			s-1.167-1.426-1.167-2.278c0-0.37,0.12-0.824,0.361-1.361s0.592-1.037,1.056-1.501c0.462-0.463,1.028-0.861,1.695-1.194
			c0.667-0.334,1.426-0.5,2.279-0.5h6.002l11.726-23.287c0.741-1.407,1.658-2.417,2.751-3.028c1.092-0.611,2.232-0.917,3.418-0.917
			c1.111,0,2.13,0.297,3.057,0.889c0.926,0.594,1.389,1.576,1.389,2.946c0,0.704-0.158,1.417-0.472,2.14
			c-0.315,0.723-0.732,1.565-1.25,2.528c-0.334,0.63-0.742,1.381-1.223,2.251c-0.482,0.871-0.992,1.797-1.528,2.779
			c-0.538,0.981-1.093,2.01-1.668,3.084s-1.139,2.111-1.695,3.111c-1.26,2.372-2.594,4.873-4.001,7.504h18.118
			c0.889,0,1.704,0.047,2.445,0.139c0.74,0.092,1.379,0.277,1.917,0.555c0.537,0.278,0.954,0.658,1.251,1.141
			c0.296,0.481,0.445,1.13,0.445,1.944c0,0.408-0.066,0.815-0.195,1.223c-0.13,0.408-0.371,0.778-0.722,1.111
			c-0.353,0.334-0.834,0.611-1.445,0.834c-0.611,0.222-1.399,0.371-2.362,0.444L166.058,60.947z"/>
		<path fill="#FFFFFF" d="M198.903,91.53c-3.653,1.226-7.689,1.706-10.282,1.706c-2.223,0-4.196-0.427-5.919-1.278
			c-1.723-0.852-3.187-2.001-4.39-3.446c-1.205-1.444-2.122-3.111-2.751-5.001c-0.631-1.89-0.945-3.871-0.945-5.946
			c0-1.593,0.314-3.344,0.945-5.252c0.629-1.908,1.537-3.825,2.723-5.752c1.185-1.927,2.64-3.808,4.362-5.642
			c1.723-1.834,3.659-3.454,5.808-4.862c2.148-1.407,4.51-2.538,7.086-3.39c2.575-0.852,5.326-1.279,8.253-1.279
			c3.075,0,5.372,0.742,6.891,2.224c1.518,1.482,2.278,3.538,2.278,6.169c0,1.556-0.408,3.187-1.223,4.891
			c-0.815,1.704-2.223,3.437-4.224,5.196c-2.001,1.76-4.678,3.557-8.03,5.391c-3.354,1.834-7.55,3.678-12.588,5.529
			c0.185,1.075,0.759,1.918,1.723,2.529c0.963,0.611,2.241,0.917,3.835,0.917c1.704,0,3.529-0.251,5.474-0.751
			c1.945-0.5,3.871-1.139,5.78-1.917c1.908-0.778,3.77-1.62,5.585-2.528c1.814-0.908,3.454-1.77,4.918-2.585
			c1.463-0.814,2.686-1.518,3.668-2.111c0.981-0.593,1.64-0.963,1.973-1.111c0.333-0.223,0.639-0.352,0.917-0.39
			c0.278-0.036,0.528-0.056,0.75-0.056 M201.792,59.058c-0.186-0.036-0.353-0.056-0.5-0.056c-0.148,0-0.315,0-0.5,0
			c-1.409,0-2.723,0.278-3.946,0.834c-1.223,0.556-2.344,1.287-3.362,2.195c-1.019,0.908-1.927,1.936-2.723,3.084
			c-0.797,1.148-1.51,2.288-2.14,3.418c-0.631,1.131-1.159,2.214-1.584,3.251c-0.426,1.038-0.751,1.908-0.973,2.612
			c1.296-0.667,2.64-1.426,4.029-2.279c1.389-0.852,2.695-1.667,3.918-2.445c1.223-0.777,2.287-1.48,3.195-2.111
			c0.908-0.63,1.547-1.056,1.917-1.278c1.668-1.037,2.815-2.01,3.446-2.918c0.629-0.907,0.945-1.694,0.945-2.361
			c0-0.556-0.176-1.001-0.528-1.334C202.634,59.336,202.237,59.132,201.792,59.058z"/>
	</g>
	<path fill="#FFFFFF" d="M389.773,51.444c1.406,0,2.916,0.186,4.529,0.555c1.611,0.371,3.102,1.001,4.473,1.891
		c1.371,0.889,2.51,2.065,3.418,3.528c0.908,1.464,1.361,3.271,1.361,5.419c0,1.111-0.148,2.381-0.443,3.807
		c-0.297,1.427-0.742,2.918-1.334,4.474c0.369,0.444,0.795,0.76,1.277,0.945c0.48,0.186,1,0.277,1.557,0.277
		c0.777,0,1.639-0.223,2.584-0.667s1.918-1.018,2.918-1.723c1-0.703,2-1.5,3-2.39c1.002-0.89,1.945-1.778,2.836-2.668
		c0.889-0.889,1.693-1.731,2.416-2.528c0.723-0.796,1.324-1.473,1.807-2.028c0.26-0.259,0.574-0.39,0.945-0.39
		c0.518,0,0.98,0.27,1.389,0.807c0.408,0.537,0.611,1.287,0.611,2.25c0,0.964-0.287,2.076-0.861,3.335
		c-0.574,1.26-1.639,2.575-3.195,3.945c-0.889,0.964-1.908,2.076-3.057,3.335c-1.148,1.26-2.371,2.445-3.668,3.557
		c-1.297,1.111-2.648,2.057-4.057,2.834c-1.408,0.778-2.816,1.168-4.225,1.168c-0.963,0-1.898-0.148-2.807-0.445
		c-0.908-0.296-1.824-0.777-2.75-1.444c-1.334,2.075-2.853,3.965-4.557,5.668c-1.705,1.705-3.603,3.168-5.697,4.391
		s-4.353,2.177-6.779,2.862c-2.428,0.685-5.012,1.028-7.754,1.028c-1.037,0-2.242-0.204-3.611-0.611
		c-1.371-0.408-2.678-1.084-3.918-2.028c-1.242-0.945-2.289-2.177-3.141-3.696c-0.853-1.518-1.277-3.371-1.277-5.558
		c0-1.481,0.24-3.26,0.723-5.335c0.48-2.074,1.213-4.214,2.193-6.419c0.982-2.204,2.225-4.391,3.725-6.558
		c1.5-2.168,3.287-4.112,5.363-5.835c2.074-1.723,4.445-3.113,7.113-4.168C383.549,51.972,386.512,51.444,389.773,51.444z
		 M386.883,61.225c-1.742,0-3.418,0.436-5.029,1.307s-3.039,2.02-4.279,3.445c-1.242,1.427-2.232,3.038-2.973,4.835
		c-0.742,1.798-1.113,3.641-1.113,5.53c0,0.704,0.057,1.473,0.168,2.306c0.111,0.834,0.342,1.612,0.693,2.334
		c0.354,0.723,0.863,1.325,1.529,1.807c0.666,0.481,1.557,0.723,2.668,0.723c1.703,0,3.361-0.453,4.973-1.362
		c1.613-0.907,3.049-2.093,4.309-3.557c1.258-1.463,2.258-3.12,3-4.974c0.74-1.852,1.111-3.724,1.111-5.613
		c0-0.74-0.047-1.509-0.139-2.306s-0.314-1.528-0.666-2.195c-0.354-0.667-0.861-1.214-1.529-1.64
		C388.939,61.439,388.031,61.225,386.883,61.225z"/>
	<path fill="#FFFFFF" d="M471.912,78.565c-1.631,1.852-3.529,3.659-5.697,5.418c-2.168,1.761-4.4,3.326-6.697,4.696
		c-2.297,1.371-4.557,2.474-6.779,3.307c-2.223,0.834-4.225,1.251-6.002,1.251c-1.779,0-3.223-0.5-4.334-1.501
		c-1.113-1-1.668-2.704-1.668-5.112c0-1.704,0.297-3.686,0.889-5.947c-0.963,1.445-2.168,2.909-3.611,4.391
		c-1.445,1.482-3.094,2.834-4.947,4.057c-1.854,1.223-3.928,2.215-6.225,2.974s-4.799,1.14-7.502,1.14
		c-1.223,0-2.398-0.131-3.529-0.39c-1.131-0.26-2.121-0.704-2.973-1.333c-0.853-0.63-1.539-1.474-2.057-2.529
		c-0.52-1.056-0.777-2.38-0.777-3.974c0-0.036,0.072-0.602,0.223-1.694c0.147-1.093,0.619-2.815,1.416-5.169
		c0.797-2.352,2.029-5.399,3.695-9.142c1.668-3.742,4.02-8.281,7.059-13.616c0.777-1.408,1.676-2.418,2.695-3.029
		c1.02-0.611,2.121-0.916,3.307-0.916c0.518,0,1.057,0.064,1.611,0.193c0.557,0.131,1.074,0.334,1.557,0.611
		c0.48,0.278,0.869,0.631,1.166,1.057s0.445,0.917,0.445,1.473c0,0.371-0.055,0.723-0.166,1.057
		c-0.186,0.63-0.584,1.453-1.195,2.473s-1.324,2.186-2.141,3.501c-0.814,1.315-1.676,2.732-2.584,4.251
		c-0.908,1.521-1.75,3.095-2.527,4.725c-0.779,1.631-1.445,3.288-2.002,4.974c-0.555,1.686-0.871,3.326-0.943,4.918
		c0,0.667,0.184,1.278,0.555,1.834s0.982,0.834,1.834,0.834c2.408,0,4.705-0.667,6.891-2.001c2.188-1.334,4.205-2.991,6.059-4.974
		c1.852-1.981,3.529-4.112,5.029-6.392c1.5-2.278,2.752-4.362,3.752-6.252c0.703-1.259,1.324-2.611,1.861-4.057
		c0.537-1.445,1.121-2.779,1.75-4.002c0.631-1.223,1.354-2.24,2.168-3.057c0.814-0.814,1.834-1.223,3.057-1.223
		c1.334,0,2.391,0.427,3.168,1.279s1.166,1.871,1.166,3.057c0,0.666-0.25,1.584-0.75,2.751s-1.131,2.5-1.889,4.001
		c-0.76,1.5-1.584,3.104-2.473,4.807c-0.891,1.705-1.715,3.438-2.475,5.196c-0.76,1.761-1.389,3.483-1.889,5.169
		c-0.5,1.687-0.75,3.251-0.75,4.696c0,1.333,0.815,2,2.445,2c1.148,0,2.574-0.333,4.279-1c1.703-0.667,3.492-1.603,5.363-2.807
		c1.869-1.203,3.74-2.62,5.613-4.251c1.869-1.63,3.527-3.391,4.973-5.28L471.912,78.565z"/>
	<path fill="#FFFFFF" d="M513.621,83.121c-1.76,1.261-3.557,2.436-5.391,3.529c-1.834,1.094-3.799,2.112-5.891,3.057
		c-2.094,0.944-4.549,1.825-7.363,2.64c-0.965,0.296-1.844,0.519-2.641,0.667c-0.797,0.147-1.529,0.223-2.195,0.223
		c-1.965,0-3.4-0.547-4.307-1.64c-0.908-1.093-1.361-2.621-1.361-4.585c0-0.259,0.008-0.509,0.027-0.75
		c0.018-0.241,0.045-0.509,0.084-0.806c0.072-1.148,0.379-2.408,0.916-3.779c0.537-1.37,1.185-2.779,1.945-4.224
		s1.565-2.881,2.418-4.308c0.852-1.426,1.639-2.778,2.361-4.057c0.723-1.278,1.324-2.418,1.807-3.418
		c0.48-1,0.723-1.814,0.723-2.445c0-0.556-0.158-1.028-0.473-1.417c-0.316-0.389-0.787-0.584-1.418-0.584
		c-2.371,0-4.621,0.705-6.752,2.112c-2.131,1.408-4.121,3.14-5.975,5.196s-3.557,4.233-5.113,6.53
		c-1.555,2.297-2.926,4.353-4.111,6.168c-0.742,1.223-1.418,2.529-2.029,3.919c-0.611,1.389-1.25,2.687-1.916,3.89
		c-0.668,1.204-1.418,2.205-2.252,3.001c-0.834,0.797-1.881,1.195-3.139,1.195c-1.299,0-2.316-0.408-3.057-1.223
		c-0.742-0.814-1.113-1.815-1.113-3.001c0-0.63,0.26-1.648,0.779-3.057c0.518-1.408,1.186-3.038,2-4.891
		c0.815-1.853,1.733-3.844,2.752-5.975c1.018-2.13,2.037-4.242,3.057-6.335c1.018-2.093,1.99-4.066,2.918-5.919
		c0.924-1.853,1.684-3.427,2.277-4.725c0.74-1.592,1.668-2.778,2.779-3.557c1.111-0.777,2.203-1.166,3.279-1.166
		c0.889,0,1.686,0.324,2.389,0.972c0.703,0.649,1.057,1.602,1.057,2.862c0,0.482-0.057,1-0.168,1.556
		c-0.109,0.557-0.315,1.149-0.611,1.778c0.814-1.036,1.982-2.102,3.502-3.195c1.52-1.092,3.195-2.074,5.029-2.945
		c1.834-0.87,3.725-1.584,5.67-2.14c1.943-0.556,3.787-0.833,5.529-0.833c1.963,0,3.602,0.472,4.918,1.416
		c1.315,0.945,1.973,2.549,1.973,4.808c0,1.334-0.203,2.724-0.611,4.168c-0.408,1.445-0.936,2.891-1.584,4.335
		c-0.648,1.445-1.371,2.862-2.168,4.252c-0.797,1.389-1.584,2.695-2.361,3.918c-0.777,1.223-1.492,2.344-2.139,3.362
		c-0.65,1.02-1.16,1.861-1.529,2.528c-0.482,0.593-0.723,1.278-0.723,2.057c0,0.297,0.092,0.556,0.277,0.777
		c0.185,0.223,0.482,0.334,0.891,0.334c0.258,0,0.555-0.028,0.889-0.083c0.334-0.056,0.74-0.251,1.223-0.584
		c2-0.74,4.047-1.667,6.141-2.778c2.094-1.112,4.104-2.288,6.029-3.529c1.928-1.241,3.697-2.482,5.309-3.724
		c1.611-1.241,2.953-2.362,4.029-3.362"/>
	<path fill="#FFFFFF" d="M579.565,51.388c3.076,0,5.373,0.742,6.892,2.224c1.518,1.482,2.277,3.538,2.277,6.169
		c0,1.556-0.408,3.187-1.223,4.891c-0.814,1.704-2.223,3.437-4.223,5.196c-2.002,1.76-4.678,3.557-8.031,5.391
		c-3.354,1.834-7.549,3.678-12.588,5.529c0.186,1.075,0.76,1.918,1.723,2.529s2.242,0.917,3.836,0.917
		c1.703,0,3.529-0.251,5.473-0.751c1.945-0.5,3.873-1.139,5.781-1.917s3.77-1.62,5.584-2.528c1.816-0.908,3.455-1.77,4.92-2.585
		c1.463-0.814,2.686-1.518,3.668-2.111c0.98-0.593,1.639-0.963,1.973-1.111c0.332-0.223,0.639-0.352,0.916-0.39
		c0.277-0.036,0.529-0.056,0.75-0.056c0.445,0,0.814,0.103,1.111,0.306c0.297,0.204,0.547,0.445,0.752,0.723
		c0.203,0.278,0.342,0.575,0.416,0.89c0.074,0.314,0.111,0.583,0.111,0.806c0,0.333-0.037,0.731-0.111,1.194
		c-0.074,0.464-0.353,0.992-0.834,1.584c-0.186,0.187-0.805,0.687-1.861,1.501c-1.057,0.815-2.418,1.778-4.084,2.89
		c-1.668,1.111-3.606,2.288-5.809,3.529c-2.205,1.241-4.539,2.381-7.002,3.418c-2.465,1.037-5.029,1.898-7.697,2.584
		c-2.668,0.685-5.299,1.028-7.893,1.028c-2.223,0-4.195-0.427-5.918-1.278c-1.723-0.852-3.188-2.001-4.391-3.446
		c-1.205-1.444-2.121-3.111-2.75-5.001c-0.631-1.89-0.945-3.871-0.945-5.946c0-1.593,0.314-3.344,0.945-5.252
		c0.629-1.908,1.537-3.825,2.723-5.752c1.186-1.927,2.639-3.808,4.363-5.642c1.723-1.834,3.658-3.454,5.807-4.862
		c2.148-1.407,4.51-2.538,7.086-3.39C573.887,51.815,576.639,51.388,579.565,51.388z M577.565,59.058
		c-0.186-0.036-0.352-0.056-0.5-0.056s-0.315,0-0.5,0c-1.408,0-2.723,0.278-3.945,0.834c-1.223,0.556-2.344,1.287-3.363,2.195
		c-1.02,0.908-1.926,1.936-2.723,3.084c-0.797,1.148-1.51,2.288-2.141,3.418c-0.629,1.131-1.158,2.214-1.584,3.251
		c-0.426,1.038-0.75,1.908-0.971,2.612c1.295-0.667,2.639-1.426,4.027-2.279c1.391-0.852,2.695-1.667,3.918-2.445
		c1.223-0.777,2.289-1.48,3.197-2.111c0.906-0.63,1.545-1.056,1.916-1.278c1.668-1.037,2.816-2.01,3.445-2.918
		c0.631-0.907,0.945-1.694,0.945-2.361c0-0.556-0.176-1.001-0.527-1.334C578.406,59.336,578.01,59.132,577.565,59.058z"/>
	<path fill="#FFFFFF" d="M375.724,10.326C371.873,6.792,366.882,5,360.889,5c-7.749,0-14.152,2.577-19.043,7.671
		c-2.14,2.26-4.108,5.014-5.85,8.186c-1.718,3.127-3.128,6.387-4.191,9.691c-1.026,3.189-2.041,6.734-3.015,10.537
		c-0.97,3.785-2.028,8.631-3.145,14.4c-0.876,4.53-1.917,8.674-3.103,12.357c-2.146-0.898-3.973-1.641-5.465-2.221
		c-5.739-2.133-11.286-3.214-16.487-3.214c-7.595,0-13.66,2.446-18.029,7.273c-2.455,2.724-3.7,6.091-3.7,10.01
		c0,4.343,2.824,7.854,8.412,10.446c2.761,1.254,5.857,1.891,9.204,1.891c6.22,0,11.835-0.861,16.69-2.558
		c4.308-1.505,8.001-3.44,11.001-5.762c1.543,0.615,3.736,1.56,6.546,2.821c3.879,1.74,7.443,3.098,10.593,4.033
		c3.274,0.973,6.347,1.465,9.132,1.465c2.908,0,5.272-0.388,7.224-1.186c4.229-1.725,8.024-5.844,11.603-12.592
		c0.63-1.189,0.206-2.664-0.959-3.337l-2.502-1.444c-0.38-0.219-0.811-0.335-1.25-0.335c-1.479,0-2.232,1.091-3.03,2.247
		c-0.507,0.734-1.108,1.538-1.787,2.392c-0.52,0.652-1.333,1.296-2.418,1.911c-0.999,0.566-2.031,0.842-3.157,0.842
		c-3.145,0-6.93-0.991-11.266-2.952c-1.673-0.744-3.875-1.772-6.548-3.056c-1.409-0.675-2.619-1.249-3.646-1.73
		c3.86-6.969,6.923-15.459,9.12-25.293c0.947-4.301,2.049-8.705,3.273-13.092c1.21-4.332,2.458-8.071,3.711-11.113
		c1.136-2.76,2.751-5.035,4.802-6.766c1.923-1.623,4.159-2.412,6.835-2.412c6.156,0,8.783,2.826,8.783,9.449
		c0,4.454-0.924,8.883-2.745,13.164c-1.821,4.273-4.448,8.049-7.809,11.221c-3.296,3.111-7.033,5.196-11.107,6.198
		c-0.647,0.159-1.204,0.57-1.547,1.142s-0.443,1.256-0.279,1.902l0.777,3.057c0.321,1.264,1.557,2.07,2.846,1.848
		c4.159-0.713,8.238-2.194,12.123-4.402c3.855-2.193,7.302-4.914,10.242-8.09c2.96-3.199,5.369-6.945,7.159-11.137
		c1.811-4.24,2.73-8.676,2.73-13.18C381.617,18.95,379.635,13.918,375.724,10.326z M298.979,73.133
		c4.825,0,10.275,1.83,16.233,5.446c-0.982,0.783-2.148,1.491-3.482,2.114c-4.263,1.93-8.583,2.908-12.841,2.908l0,0
		c-2.618-0.001-5.28-0.369-7.917-1.097c-3.61-0.994-3.61-2.674-3.61-3.48C287.363,77.413,287.363,73.133,298.979,73.133z"/>
	<path fill="#FFFFFF" d="M220.666,64.697c0,0-5.161,13.518-24.997,19.509l1.664,4.658l0.735,2.92c0,0,19.932-5.262,26.099-24.966
		L220.666,64.697z"/>
	<path fill="#FFFFFF" d="M232.312,76.872c0-0.621,0.096-1.219,0.273-1.781c0.025-0.097,0.038-0.191,0.068-0.289
		c0.618-1.953,1.685-3.764,3.198-5.431c0.298,0,0.597-0.169,0.896-0.508c1.087-1.12,1.705-2.579,1.854-4.376
		c-4.988-0.34-9.124-1.485-12.407-3.439c1.473-0.965,1.557-2.07,1.557-2.892c0-0.819-0.256-2.214-0.683-2.708
		c-1.087-1.303-1.86-2.434-4.984-1.886c-0.669,0.117-1.944,0.505-3.373,2.641c-1.514,2.188-2.27,3.985-2.27,5.392
		c0,2.293,1.119,4.064,3.357,5.314c-1.535,5.105-4.2,9.287-7.994,12.543c0.255,0.625-0.742,1.172,1.006,1.641
		c0.981,0.261,1.61-0.771,1.887-1.318c2.111-3.647,6.264-6.912,8.46-11.576c1.79,0.496,3.965,0.821,6.523,0.978
		c-2.622,1.771-4.786,4.012-6.492,6.721c-0.831,1.302-1.486,2.644-1.967,4.024c-0.479,1.381-0.719,2.781-0.719,4.2
		c0,1.421,0.245,2.664,0.736,3.731c1.428,3.179,4.242,4.768,8.442,4.768c2.473,0,4.999-1.12,7.579-3.36
		c1.151-1.017,2.238-2.162,3.262-3.438L238.03,82.8C234.852,82.681,232.312,80.077,232.312,76.872z"/>
	<path fill="#FFFFFF" d="M271.01,56.986c-0.448-0.842-1.08-1.541-1.879-2.08c-0.741-0.497-1.607-0.863-2.572-1.091
		c-2.048-0.483-4.547-0.408-7.201,0.157c-1.454,0.311-2.92,0.748-4.359,1.301c-1.437,0.554-2.834,1.227-4.154,2.002
		c-1.339,0.79-2.537,1.659-3.559,2.584c-1.073,0.971-1.939,2.027-2.575,3.138c-0.695,1.206-1.047,2.475-1.047,3.774
		c0,1.424,0.446,2.796,1.324,4.078c0.802,1.172,1.957,2.339,3.543,3.575c0.179,0.137,0.6,0.443,2.17,1.519
		c1.169,0.803,2.84,1.829,5.111,3.142c1.359,0.779,2.022,1.379,2.338,1.742c0.319,0.367,0.494,0.696,0.494,0.926
		c0,0.482-0.159,0.927-0.485,1.357c-0.4,0.529-0.962,1.004-1.671,1.408c-0.758,0.434-1.672,0.779-2.715,1.025
		c-1.069,0.252-2.218,0.381-3.416,0.381c-1.195,0-2.222-0.066-3.048-0.197c-0.789-0.127-1.418-0.289-1.874-0.484
		c-0.486-0.208-0.655-0.382-0.698-0.434c-0.032-0.038-0.047-0.064-0.053-0.066c0.011-0.065,0.103-0.271,0.437-0.582
		c0.469-0.434,1.154-0.824,2.021-1.153c0.489-0.179,0.917-0.359,1.276-0.538c0.41-0.205,0.759-0.44,1.048-0.709
		c0.36-0.34,0.611-0.732,0.748-1.172c0.102-0.332,0.153-0.702,0.153-1.1c0-0.798-0.211-1.529-0.631-2.181
		c-0.537-0.825-1.417-1.279-2.477-1.279l-0.317,0.034c-1.609,0.348-3.106,0.859-4.447,1.518c-1.358,0.666-2.545,1.441-3.53,2.307
		c-1.014,0.89-1.817,1.857-2.387,2.876c-0.611,1.095-0.921,2.209-0.921,3.312c0,1.104,0.323,2.161,0.958,3.142
		c0.614,0.948,1.57,1.777,2.844,2.465c1.18,0.636,2.676,1.139,4.447,1.497c1.726,0.349,3.829,0.526,6.252,0.526
		c2.645,0,5.095-0.338,7.283-1.006c2.196-0.67,4.114-1.568,5.7-2.671c1.627-1.13,2.909-2.45,3.81-3.921
		c0.936-1.531,1.411-3.134,1.411-4.763c0-0.824-0.171-1.616-0.51-2.356c-0.307-0.667-0.74-1.328-1.289-1.968
		c-0.523-0.607-1.167-1.214-1.916-1.802c-0.72-0.566-1.535-1.146-2.416-1.717l-6.727-4.409c-0.604-0.388-1.136-0.749-1.596-1.083
		c-0.418-0.303-0.773-0.595-1.062-0.873c-0.218-0.209-0.379-0.41-0.474-0.584c-0.058-0.109-0.084-0.215-0.084-0.344
		c0-0.209,0.107-0.459,0.318-0.74c0.32-0.428,0.763-0.848,1.315-1.248c0.603-0.436,1.316-0.852,2.12-1.234
		c0.82-0.391,1.685-0.734,2.568-1.021c0.874-0.281,1.77-0.51,2.659-0.678c0.605-0.113,1.18-0.188,1.716-0.221
		c-0.188,0.136-0.391,0.254-0.616,0.357c-0.954,0.454-1.673,1.041-2.139,1.744c-0.48,0.723-0.724,1.48-0.724,2.253
		c0,0.931,0.335,1.788,0.971,2.482c1.233,1.337,3.387,1.495,5.487,0.207c1.854-1.101,3.271-2.328,4.213-3.648
		c1.004-1.407,1.514-2.924,1.514-4.507C271.689,58.827,271.46,57.827,271.01,56.986z"/>
</g>
</svg>
